<svg xmlns="http://www.w3.org/2000/svg" width="1200" height="600"><style>.b{fill:#f7f7f7;stroke:#333;stroke-width:2}.t{font:20px Arial}.s{font:14px Arial}.a{stroke:#333;stroke-width:3;marker-end:url(#m)}</style><defs><marker id="m" markerWidth="10" markerHeight="10" refX="8" refY="3" orient="auto"><path d="M0,0 L0,6 L9,3z"/></marker></defs><rect class="b" x="30" y="50" width="190" height="80" rx="10"/><text class="t" x="125" y="85" text-anchor="middle">Banking Data</text><text class="s" x="125" y="108" text-anchor="middle">Customers / Loans / Txns</text><rect class="b" x="280" y="50" width="210" height="80" rx="10"/><text class="t" x="385" y="85" text-anchor="middle">SQL Database</text><text class="s" x="385" y="108" text-anchor="middle">Operational store</text><rect class="b" x="550" y="50" width="210" height="80" rx="10"/><text class="t" x="655" y="85" text-anchor="middle">Python Pipeline</text><text class="s" x="655" y="108" text-anchor="middle">Validate / Detect / Score</text><rect class="b" x="820" y="50" width="250" height="80" rx="10"/><text class="t" x="945" y="85" text-anchor="middle">Risk Alert Queue</text><text class="s" x="945" y="108" text-anchor="middle">Severity / Owner</text><line class="a" x1="220" y1="90" x2="280" y2="90"/><line class="a" x1="490" y1="90" x2="550" y2="90"/><line class="a" x1="760" y1="90" x2="820" y2="90"/><rect class="b" x="420" y="220" width="300" height="90" rx="10"/><text class="t" x="570" y="260" text-anchor="middle">Operations Workflow</text><text class="s" x="570" y="284" text-anchor="middle">Validate / Investigate / Resolve</text><line class="a" x1="945" y1="130" x2="720" y2="260"/><rect class="b" x="120" y="440" width="250" height="80" rx="10"/><text class="t" x="245" y="475" text-anchor="middle">Power BI Model</text><text class="s" x="245" y="498" text-anchor="middle">Facts / Dimensions / DAX</text><rect class="b" x="475" y="440" width="250" height="80" rx="10"/><text class="t" x="600" y="475" text-anchor="middle">Executive Dashboard</text><text class="s" x="600" y="498" text-anchor="middle">Risk / System Health</text><rect class="b" x="830" y="440" width="250" height="80" rx="10"/><text class="t" x="955" y="475" text-anchor="middle">What-If Analysis</text><text class="s" x="955" y="498" text-anchor="middle">Interest-rate scenario</text><line class="a" x1="570" y1="310" x2="245" y2="440"/><line class="a" x1="370" y1="480" x2="475" y2="480"/><line class="a" x1="725" y1="480" x2="830" y2="480"/></svg>